#!OML:ASF I:\Actors\actors\Patient Classification 2\Patient 1\Session 1\actor1.ASF
:FULLY-SPECIFIED
:DEGREES
481
root -0.945229 18.7668 4.57385 3.57762 -4.9866 -1.06957
lowerback 5.00201 -0.417745 2.16088
upperback -2.83443 -0.28904 2.04723
thorax -5.75459 -0.184061 0.944759
lowerneck -16.6246 -3.84146 -4.28742
upperneck 22.9172 -4.51348 1.10821
head 10.1884 -2.33344 0.489898
rclavicle 3.00701e-015 -1.98785e-014
rhumerus 10.4581 45.1197 -35.1943
rradius 92.9521
rwrist 35.892
rhand -38.8739 -39.4091
rfingers 7.12502
rthumb -11.882 -69.052
lclavicle 3.00701e-015 -1.98785e-014
lhumerus 26.5902 -25.7735 64.0447
lradius 104.887
lwrist 55.2301
lhand -10.458 -14.4124
lfingers 7.12502
lthumb 15.5426 14.983
rfemur 0 0 0
rtibia 0
rfoot 0 0
rtoes 0
lfemur -5.40035 -4.73492 -12.8311
ltibia 19.8633
lfoot -21.2721 12.5237
ltoes -54.9051
482
root -0.94031 18.768 4.57329 3.67674 -5.15561 -1.0131
lowerback 4.83003 -0.495772 2.21076
upperback -2.84451 -0.390067 2.1612
thorax -5.66662 -0.233311 1.0435
lowerneck -16.6808 -3.74617 -4.32408
upperneck 22.8639 -4.32983 0.968716
head 10.1723 -2.26829 0.471717
rclavicle 1.30185e-014 -7.95139e-015
rhumerus 9.55607 46.3187 -35.9545
rradius 93.0904
rwrist 36.0961
rhand -38.744 -39.7375
rfingers 7.12502
rthumb -11.7568 -69.3876
lclavicle 1.30185e-014 -7.95139e-015
lhumerus 27.2123 -25.898 63.9854
lradius 103.633
lwrist 55.6778
lhand -11.3961 -14.5204
lfingers 7.12502
lthumb 14.6389 14.9429
rfemur 0 0 0
rtibia 0
rfoot 0 0
rtoes 0
lfemur -5.44478 -4.61614 -12.9086
ltibia 19.7938
lfoot -21.2578 12.5894
ltoes -54.9086
483
root -0.934115 18.7688 4.57555 3.70994 -5.32412 -0.954869
lowerback 4.68159 -0.56846 2.34113
upperback -2.83192 -0.481308 2.21795
thorax -5.56938 -0.281857 1.03612
lowerneck -16.705 -3.64662 -4.35014
upperneck 22.8429 -4.16338 0.898596
head 10.1637 -2.20225 0.474179
rclavicle 1.33467e-014 -1.59028e-015
rhumerus 8.75398 47.2808 -36.6761
rradius 93.1686
rwrist 36.1393
rhand -38.6657 -39.8785
rfingers 7.12502
rthumb -11.6813 -69.5328
lclavicle 1.33467e-014 -1.59028e-015
lhumerus 27.5888 -26.2403 63.8842
lradius 102.502
lwrist 56.1554
lhand -13.3467 -15.2535
lfingers 7.12502
lthumb 12.759 14.3367
rfemur 0 0 0
rtibia 0
rfoot 0 0
rtoes 0
lfemur -5.41033 -4.55719 -13.0158
ltibia 19.7425
lfoot -21.2532 12.7304
ltoes -54.9511
484
root -0.928664 18.7689 4.57809 3.69242 -5.46103 -0.959228
lowerback 4.60278 -0.649581 2.52456
upperback -2.82062 -0.576711 2.29444
thorax -5.51415 -0.334167 1.02062
lowerneck -16.7442 -3.58058 -4.43814
upperneck 22.9109 -4.04725 0.905264
head 10.1948 -2.15605 0.506063
rclavicle -1.15384e-014 2.38542e-015
rhumerus 7.9893 48.166 -37.2923
rradius 93.2456
rwrist 36.3114
rhand -38.4237 -40.4892
rfingers 7.12502
rthumb -11.448 -70.1566
lclavicle -1.15384e-014 2.38542e-015
lhumerus 27.731 -26.7233 63.7523
lradius 101.548
lwrist 56.5592
lhand -16.3488 -16.5557
lfingers 7.12502
lthumb 9.86368 13.1932
rfemur 0 0 0
rtibia 0
rfoot 0 0
rtoes 0
lfemur -5.32128 -4.49298 -13.0501
ltibia 19.6906
lfoot -21.2519 12.8206
ltoes -55.0107
485
root -0.924136 18.7687 4.57831 3.66048 -5.59256 -0.95419
lowerback 4.59013 -0.727466 2.6687
upperback -2.81407 -0.668046 2.366
thorax -5.50163 -0.38326 1.02262
lowerneck -16.8565 -3.53563 -4.47969
upperneck 23.0394 -3.95228 0.841072
head 10.2595 -2.12396 0.500773
rclavicle 1.06924e-015 3.02153e-014
rhumerus 7.50233 48.885 -37.5493
rradius 93.3084
rwrist 36.3283
rhand -38.5167 -40.8155
rfingers 7.12502
rthumb -11.5376 -70.478
lclavicle 1.06924e-015 3.02153e-014
lhumerus 27.6968 -27.1492 63.6308
lradius 100.76
lwrist 56.7859
lhand -19.4132 -17.3938
lfingers 7.12502
lthumb 6.90625 12.4735
rfemur 0 0 0
rtibia 0
rfoot 0 0
rtoes 0
lfemur -5.23684 -4.37452 -13.0812
ltibia 19.6497
lfoot -21.2618 12.8334
ltoes -55.018
486
root -0.919429 18.7686 4.57685 3.63 -5.74418 -0.918231
lowerback 4.5764 -0.790574 2.77619
upperback -2.80011 -0.744081 2.40679
thorax -5.48062 -0.423928 1.01151
lowerneck -16.937 -3.47847 -4.52196
upperneck 23.1122 -3.84988 0.813495
head 10.2988 -2.08412 0.51057
rclavicle 1.59598e-014 -3.57812e-014
rhumerus 7.35505 49.363 -37.4751
rradius 93.3388
rwrist 36.3425
rhand -38.838 -40.7603
rfingers 7.12502
rthumb -11.8474 -70.4052
lclavicle 1.59598e-014 -3.57812e-014
lhumerus 27.4648 -27.419 63.6297
lradius 100.099
lwrist 57.2442
lhand -21.361 -17.3499
lfingers 7.12502
lthumb 5.02576 12.5705
rfemur 0 0 0
rtibia 0
rfoot 0 0
rtoes 0
lfemur -5.165 -4.27754 -13.1486
ltibia 19.626
lfoot -21.3006 12.8469
ltoes -54.9409
487
root -0.914709 18.7683 4.575 3.60868 -5.90075 -0.90686
lowerback 4.54898 -0.828672 2.90959
upperback -2.78814 -0.785817 2.4417
thorax -5.45438 -0.448656 0.976362
lowerneck -16.9489 -3.41146 -4.47892
upperneck 23.1191 -3.73474 0.687222
head 10.2968 -2.04275 0.474675
rclavicle 2.29068e-017 -1.27222e-014
rhumerus 7.44301 49.613 -37.1788
rradius 93.3462
rwrist 36.4317
rhand -38.8868 -40.8114
rfingers 7.12502
rthumb -11.8945 -70.4535
lclavicle 2.29068e-017 -1.27222e-014
lhumerus 27.035 -27.6207 63.8452
lradius 99.6501
lwrist 58.2299
lhand -22.2973 -17.1116
lfingers 7.12502
lthumb 4.12166 12.8282
rfemur 0 0 0
rtibia 0
rfoot 0 0
rtoes 0
lfemur -5.10069 -4.23983 -13.1953
ltibia 19.6111
lfoot -21.3993 12.9099
ltoes -54.8129
488
root -0.910479 18.7678 4.57452 3.5775 -6.06425 -0.898611
lowerback 4.5306 -0.850151 3.03123
upperback -2.7758 -0.805826 2.47663
thorax -5.43273 -0.462187 0.945946
lowerneck -16.963 -3.34133 -4.40006
upperneck 23.1272 -3.6183 0.534364
head 10.2944 -2.00079 0.423572
rclavicle 3.90154e-015 -8.74653e-015
rhumerus 7.57575 49.7627 -36.8103
rradius 93.3962
rwrist 36.4874
rhand -38.7683 -40.9577
rfingers 7.12502
rthumb -11.7802 -70.6064
lclavicle 3.90154e-015 -8.74653e-015
lhumerus 26.5759 -27.7462 64.1225
lradius 99.3722
lwrist 59.3748
lhand -22.9672 -17.023
lfingers 7.12502
lthumb 3.4748 12.9284
rfemur 0 0 0
rtibia 0
rfoot 0 0
rtoes 0
lfemur -5.02559 -4.19344 -13.243
ltibia 19.6018
lfoot -21.4783 13.0355
ltoes -54.8108
489
root -0.907473 18.7677 4.57368 3.55097 -6.21102 -0.876117
lowerback 4.47551 -0.872138 3.10829
upperback -2.7421 -0.833079 2.49598
thorax -5.36719 -0.477517 0.923775
lowerneck -16.9965 -3.29493 -4.40362
upperneck 23.1289 -3.55145 0.537966
head 10.2997 -1.96993 0.434279
rclavicle -2.44591e-015 9.54166e-015
rhumerus 7.72488 49.7944 -36.4633
rradius 93.4664
rwrist 36.3409
rhand -38.6946 -41.1143
rfingers 7.12502
rthumb -11.7092 -70.7671
lclavicle -2.44591e-015 9.54166e-015
lhumerus 26.2477 -27.774 64.2932
lradius 99.1748
lwrist 60.2422
lhand -23.6516 -16.9937
lfingers 7.12502
lthumb 2.81385 12.9675
rfemur 0 0 0
rtibia 0
rfoot 0 0
rtoes 0
lfemur -4.96967 -4.10594 -13.2951
ltibia 19.5999
lfoot -21.4911 13.1328
ltoes -54.8883
490
root -0.905051 18.7678 4.57132 3.56366 -6.33361 -0.845318
lowerback 4.38138 -0.882601 3.19989
upperback -2.71923 -0.848335 2.45965
thorax -5.29166 -0.488434 0.83392
lowerneck -17.016 -3.2677 -4.29085
upperneck 23.0972 -3.53466 0.501029
head 10.288 -1.95647 0.404799
rclavicle -6.72607e-015 3.49861e-014
rhumerus 7.6755 49.6528 -36.4148
rradius 93.5403
rwrist 35.995
rhand -38.4533 -41.1066
rfingers 7.12502
rthumb -11.4765 -70.7725
lclavicle -6.72607e-015 3.49861e-014
lhumerus 26.0102 -27.8309 64.3119
lradius 99.1318
lwrist 60.8359
lhand -24.3043 -17.0444
lfingers 7.12502
lthumb 2.18346 12.9242
rfemur 0 0 0
rtibia 0
rfoot 0 0
rtoes 0
lfemur -4.96485 -4.06456 -13.3483
ltibia 19.6016
lfoot -21.5405 13.1991
ltoes -54.8461
491
root -0.902685 18.7679 4.56903 3.59935 -6.44857 -0.822889
lowerback 4.32141 -0.884803 3.28807
upperback -2.73985 -0.849833 2.41639
thorax -5.28126 -0.493261 0.739069
lowerneck -16.9939 -3.24578 -4.11308
upperneck 23.0605 -3.5333 0.414827
head 10.2646 -1.95052 0.345656
rclavicle -1.29676e-016 8.74653e-015
rhumerus 7.44135 49.4679 -36.5765
rradius 93.5838
rwrist 35.7457
rhand -38.2675 -40.7059
rfingers 7.12502
rthumb -11.2972 -70.3816
lclavicle -1.29676e-016 8.74653e-015
lhumerus 25.7658 -27.8936 64.2686
lradius 99.1682
lwrist 61.2945
lhand -24.7555 -17.3589
lfingers 7.12502
lthumb 1.74775 12.6136
rfemur 0 0 0
rtibia 0
rfoot 0 0
rtoes 0
lfemur -4.9799 -4.09309 -13.3961
ltibia 19.5952
lfoot -21.6535 13.3154
ltoes -54.7611
492
root -0.901326 18.7682 4.56631 3.63957 -6.56942 -0.828683
lowerback 4.26436 -0.881914 3.33975
upperback -2.74288 -0.845932 2.40733
thorax -5.25287 -0.493185 0.699399
lowerneck -16.9686 -3.24611 -4.01822
upperneck 23.0135 -3.55904 0.403418
head 10.2408 -1.9553 0.32305
rclavicle 4.65778e-015 -1.66979e-014
rhumerus 7.45005 49.2231 -36.4751
rradius 93.4942
rwrist 35.7672
rhand -38.3864 -40.331
rfingers 7.12502
rthumb -11.412 -70.0005
lclavicle 4.65778e-015 -1.66979e-014
lhumerus 25.5791 -27.8034 64.2758
lradius 99.0312
lwrist 61.1555
lhand -24.6949 -17.7561
lfingers 7.12502
lthumb 1.80624 12.216
rfemur 0 0 0
rtibia 0
rfoot 0 0
rtoes 0
lfemur -4.9954 -4.10663 -13.4124
ltibia 19.5718
lfoot -21.7556 13.4741
ltoes -54.7617
493
root -0.900552 18.7688 4.56291 3.67373 -6.67288 -0.808355
lowerback 4.20446 -0.880877 3.33135
upperback -2.72866 -0.849202 2.39978
thorax -5.20371 -0.494175 0.695119
lowerneck -16.9446 -3.2519 -3.94521
upperneck 22.9505 -3.58871 0.403097
head 10.2124 -1.96237 0.307551
rclavicle -1.6128e-015 -2.06736e-014
rhumerus 7.54459 48.9596 -36.2863
rradius 93.4113
rwrist 35.8454
rhand -38.4608 -40.6288
rfingers 7.12502
rthumb -11.4837 -70.2942
lclavicle -1.6128e-015 -2.06736e-014
lhumerus 25.3819 -27.5906 64.4595
lradius 98.9108
lwrist 60.7608
lhand -24.3116 -17.6757
lfingers 7.12502
lthumb 2.17643 12.293
rfemur 0 0 0
rtibia 0
rfoot 0 0
rtoes 0
lfemur -5.00843 -4.13694 -13.4559
ltibia 19.5408
lfoot -21.8268 13.6457
ltoes -54.7719
